<mxfile host="app.diagrams.net" modified="2024-01-22T16:55:10.669Z" agent="Mozilla/5.0 (Windows NT 10.0; Win64; x64) AppleWebKit/537.36 (KHTML, like Gecko) Chrome/120.0.0.0 Safari/537.36 Edg/120.0.0.0" etag="-vmDt2FaSaKMKp9B8XEM" version="22.1.21" type="github">
  <diagram name="Seite-1" id="YvIIDkltpzDu5RlnCBpo">
    <mxGraphModel dx="2037" dy="2302" grid="1" gridSize="10" guides="1" tooltips="1" connect="1" arrows="1" fold="1" page="1" pageScale="1" pageWidth="827" pageHeight="1169" math="0" shadow="0">
      <root>
        <mxCell id="0" />
        <mxCell id="1" parent="0" />
        <mxCell id="GIrpE-bIgu7VbKGYVEwn-10" value="Kafka" style="shape=module;align=left;spacingLeft=20;align=center;verticalAlign=top;whiteSpace=wrap;html=1;" vertex="1" parent="1">
          <mxGeometry x="414" y="1800" width="140" height="50" as="geometry" />
        </mxCell>
        <mxCell id="GIrpE-bIgu7VbKGYVEwn-35" value="iee-emulator-pv" style="verticalAlign=top;align=left;spacingTop=8;spacingLeft=2;spacingRight=12;shape=cube;size=10;direction=south;fontStyle=4;html=1;whiteSpace=wrap;" vertex="1" parent="1">
          <mxGeometry x="760" y="2010" width="210" height="100" as="geometry" />
        </mxCell>
        <mxCell id="GIrpE-bIgu7VbKGYVEwn-53" value="" style="group" vertex="1" connectable="0" parent="1">
          <mxGeometry x="970" y="390" width="1240" height="690" as="geometry" />
        </mxCell>
        <mxCell id="GIrpE-bIgu7VbKGYVEwn-36" value="Datenökosystem - Direktvermarkter #Alice" style="verticalAlign=top;align=left;spacingTop=8;spacingLeft=2;spacingRight=12;shape=cube;size=10;direction=south;fontStyle=4;html=1;whiteSpace=wrap;" vertex="1" parent="GIrpE-bIgu7VbKGYVEwn-53">
          <mxGeometry width="1240" height="690" as="geometry" />
        </mxCell>
        <mxCell id="GIrpE-bIgu7VbKGYVEwn-24" value="" style="group" vertex="1" connectable="0" parent="GIrpE-bIgu7VbKGYVEwn-53">
          <mxGeometry x="400" y="55" width="420" height="390" as="geometry" />
        </mxCell>
        <mxCell id="GIrpE-bIgu7VbKGYVEwn-1" value="MicroVPP" style="verticalAlign=top;align=left;spacingTop=8;spacingLeft=2;spacingRight=12;shape=cube;size=10;direction=south;fontStyle=4;html=1;whiteSpace=wrap;" vertex="1" parent="GIrpE-bIgu7VbKGYVEwn-24">
          <mxGeometry y="12.19" width="420" height="390" as="geometry" />
        </mxCell>
        <mxCell id="GIrpE-bIgu7VbKGYVEwn-6" value="switch-service" style="shape=module;align=left;spacingLeft=20;align=center;verticalAlign=top;whiteSpace=wrap;html=1;" vertex="1" parent="GIrpE-bIgu7VbKGYVEwn-24">
          <mxGeometry x="47" y="70" width="140" height="40.625" as="geometry" />
        </mxCell>
        <mxCell id="GIrpE-bIgu7VbKGYVEwn-8" value="timeseries-service" style="shape=module;align=left;spacingLeft=20;align=center;verticalAlign=top;whiteSpace=wrap;html=1;" vertex="1" parent="GIrpE-bIgu7VbKGYVEwn-24">
          <mxGeometry x="47" y="186.875" width="140" height="40.625" as="geometry" />
        </mxCell>
        <mxCell id="GIrpE-bIgu7VbKGYVEwn-9" value="modbustcp-service" style="shape=module;align=left;spacingLeft=20;align=center;verticalAlign=top;whiteSpace=wrap;html=1;" vertex="1" parent="GIrpE-bIgu7VbKGYVEwn-24">
          <mxGeometry x="220" y="186.875" width="153" height="40.625" as="geometry" />
        </mxCell>
        <mxCell id="GIrpE-bIgu7VbKGYVEwn-12" value="Telegraf" style="verticalAlign=top;align=left;spacingTop=8;spacingLeft=2;spacingRight=12;shape=cube;size=10;direction=south;fontStyle=4;html=1;whiteSpace=wrap;" vertex="1" parent="GIrpE-bIgu7VbKGYVEwn-24">
          <mxGeometry x="231.5" y="266.09375" width="130" height="36.5625" as="geometry" />
        </mxCell>
        <mxCell id="GIrpE-bIgu7VbKGYVEwn-13" value="Akhq" style="verticalAlign=top;align=left;spacingTop=8;spacingLeft=2;spacingRight=12;shape=cube;size=10;direction=south;fontStyle=4;html=1;whiteSpace=wrap;" vertex="1" parent="GIrpE-bIgu7VbKGYVEwn-24">
          <mxGeometry x="47" y="268.125" width="153" height="32.5" as="geometry" />
        </mxCell>
        <mxCell id="GIrpE-bIgu7VbKGYVEwn-19" value="" style="group" vertex="1" connectable="0" parent="GIrpE-bIgu7VbKGYVEwn-24">
          <mxGeometry x="47" y="325" width="150" height="32.5" as="geometry" />
        </mxCell>
        <mxCell id="GIrpE-bIgu7VbKGYVEwn-11" value="Kafka" style="verticalAlign=top;align=left;spacingTop=8;spacingLeft=2;spacingRight=12;shape=cube;size=10;direction=south;fontStyle=4;html=1;whiteSpace=wrap;" vertex="1" parent="GIrpE-bIgu7VbKGYVEwn-19">
          <mxGeometry width="150" height="32.5" as="geometry" />
        </mxCell>
        <mxCell id="GIrpE-bIgu7VbKGYVEwn-52" value="" style="group" vertex="1" connectable="0" parent="GIrpE-bIgu7VbKGYVEwn-53">
          <mxGeometry x="30" y="70" width="290" height="420" as="geometry" />
        </mxCell>
        <mxCell id="GIrpE-bIgu7VbKGYVEwn-2" value="Connector" style="verticalAlign=top;align=left;spacingTop=8;spacingLeft=2;spacingRight=12;shape=cube;size=10;direction=south;fontStyle=4;html=1;whiteSpace=wrap;" vertex="1" parent="GIrpE-bIgu7VbKGYVEwn-52">
          <mxGeometry width="290" height="420" as="geometry" />
        </mxCell>
        <mxCell id="GIrpE-bIgu7VbKGYVEwn-46" value="Identity Hub" style="shape=module;align=left;spacingLeft=20;align=center;verticalAlign=top;whiteSpace=wrap;html=1;" vertex="1" parent="GIrpE-bIgu7VbKGYVEwn-52">
          <mxGeometry x="34" y="54" width="166" height="40" as="geometry" />
        </mxCell>
        <mxCell id="GIrpE-bIgu7VbKGYVEwn-47" value="Federated Catalog" style="shape=module;align=left;spacingLeft=20;align=center;verticalAlign=top;whiteSpace=wrap;html=1;" vertex="1" parent="GIrpE-bIgu7VbKGYVEwn-52">
          <mxGeometry x="34" y="120" width="170" height="46" as="geometry" />
        </mxCell>
        <mxCell id="GIrpE-bIgu7VbKGYVEwn-48" value="Management API" style="shape=module;align=left;spacingLeft=20;align=center;verticalAlign=top;whiteSpace=wrap;html=1;" vertex="1" parent="GIrpE-bIgu7VbKGYVEwn-52">
          <mxGeometry x="34" y="187" width="170" height="46" as="geometry" />
        </mxCell>
        <mxCell id="GIrpE-bIgu7VbKGYVEwn-49" value="Data Plane API" style="shape=module;align=left;spacingLeft=20;align=center;verticalAlign=top;whiteSpace=wrap;html=1;" vertex="1" parent="GIrpE-bIgu7VbKGYVEwn-52">
          <mxGeometry x="34" y="264" width="170" height="46" as="geometry" />
        </mxCell>
        <mxCell id="GIrpE-bIgu7VbKGYVEwn-55" value="Connection-Box" style="shape=module;align=left;spacingLeft=20;align=center;verticalAlign=top;whiteSpace=wrap;html=1;" vertex="1" parent="1">
          <mxGeometry x="680" y="390" width="170" height="46" as="geometry" />
        </mxCell>
        <mxCell id="GIrpE-bIgu7VbKGYVEwn-50" value="Datenökosystem - Anlagenbetreiber #1" style="verticalAlign=top;align=left;spacingTop=8;spacingLeft=2;spacingRight=12;shape=cube;size=10;direction=south;fontStyle=4;html=1;whiteSpace=wrap;" vertex="1" parent="1">
          <mxGeometry x="160" y="-100" width="400" height="880" as="geometry" />
        </mxCell>
        <mxCell id="GIrpE-bIgu7VbKGYVEwn-80" value="" style="group" vertex="1" connectable="0" parent="1">
          <mxGeometry x="220" y="-20" width="290" height="360" as="geometry" />
        </mxCell>
        <mxCell id="GIrpE-bIgu7VbKGYVEwn-75" value="Connector" style="verticalAlign=top;align=left;spacingTop=8;spacingLeft=2;spacingRight=12;shape=cube;size=10;direction=south;fontStyle=4;html=1;whiteSpace=wrap;" vertex="1" parent="GIrpE-bIgu7VbKGYVEwn-80">
          <mxGeometry width="290" height="360" as="geometry" />
        </mxCell>
        <mxCell id="GIrpE-bIgu7VbKGYVEwn-76" value="Identity Hub" style="shape=module;align=left;spacingLeft=20;align=center;verticalAlign=top;whiteSpace=wrap;html=1;" vertex="1" parent="GIrpE-bIgu7VbKGYVEwn-80">
          <mxGeometry x="34" y="46.285714285714285" width="166" height="34.285714285714285" as="geometry" />
        </mxCell>
        <mxCell id="GIrpE-bIgu7VbKGYVEwn-77" value="Federated Catalog" style="shape=module;align=left;spacingLeft=20;align=center;verticalAlign=top;whiteSpace=wrap;html=1;" vertex="1" parent="GIrpE-bIgu7VbKGYVEwn-80">
          <mxGeometry x="34" y="102.85714285714285" width="170" height="39.42857142857142" as="geometry" />
        </mxCell>
        <mxCell id="GIrpE-bIgu7VbKGYVEwn-78" value="Management API" style="shape=module;align=left;spacingLeft=20;align=center;verticalAlign=top;whiteSpace=wrap;html=1;" vertex="1" parent="GIrpE-bIgu7VbKGYVEwn-80">
          <mxGeometry x="34" y="160.28571428571428" width="170" height="39.42857142857142" as="geometry" />
        </mxCell>
        <mxCell id="GIrpE-bIgu7VbKGYVEwn-79" value="Data Plane API" style="shape=module;align=left;spacingLeft=20;align=center;verticalAlign=top;whiteSpace=wrap;html=1;" vertex="1" parent="GIrpE-bIgu7VbKGYVEwn-80">
          <mxGeometry x="34" y="226.28571428571428" width="170" height="39.42857142857142" as="geometry" />
        </mxCell>
        <mxCell id="GIrpE-bIgu7VbKGYVEwn-15" value="iee-emulator-pv" style="verticalAlign=top;align=left;spacingTop=8;spacingLeft=2;spacingRight=12;shape=cube;size=10;direction=south;fontStyle=4;html=1;whiteSpace=wrap;" vertex="1" parent="1">
          <mxGeometry x="190" y="670" width="330" height="80" as="geometry" />
        </mxCell>
      </root>
    </mxGraphModel>
  </diagram>
</mxfile>
